# xmcd CD database file
#
# Track frame offsets:
#	150
#	14050
#	29125
#	47197
#	61250
#	76157
#	89387
#	109077
#	124252
#	137742
#	155672
#
# Disc length: 2321 seconds
#
# Revision: 3
# Processed by: cddbd v1.4PL0 Copyright (c) Steve Scherf et al.
# Submitted via: CDex 1.40Beta9
#
DISCID=98090f0b
DTITLE=Clay Davidson - Unconditional
DYEAR=2000
DGENRE=Country
TTITLE0=Makin' Hay
TTITLE1=I Can't Lie To Me
TTITLE2=Unconditional
TTITLE3=Plain Ol' Pain
TTITLE4=Sometimes
TTITLE5=My Best Friends and Me
TTITLE6=Doghouse Rights
TTITLE7=Come Rain or Shine
TTITLE8=One More Day
TTITLE9=What Was I Thinking Of
TTITLE10=We're All Here
EXTD=YEAR: 2000 ID3G: 2
EXTT0=
EXTT1=
EXTT2=
EXTT3=
EXTT4=
EXTT5=
EXTT6=
EXTT7=
EXTT8=
EXTT9=
EXTT10=
PLAYORDER=
